<svg width="24" height="24" viewBox="0 0 24 24" fill="none" xmlns="http://www.w3.org/2000/svg">
<path d="M14.61 3H9.39001C8.77801 3 7.914 3.36 7.482 3.792L3.792 7.48201C3.36 7.91401 3 8.77801 3 9.39001V14.61C3 15.222 3.36 16.086 3.792 16.518L7.482 20.208C7.914 20.64 8.77801 21 9.39001 21H14.61C15.222 21 16.086 20.64 16.518 20.208L20.208 16.518C20.64 16.086 21 15.222 21 14.61V9.39001C21 8.77801 20.64 7.91401 20.208 7.48201L16.518 3.792C16.086 3.36 15.222 3 14.61 3Z" stroke="#222223" stroke-width="1.8" stroke-linecap="round" stroke-linejoin="round"/>
<path d="M5.64551 18.372L18.3715 5.646" stroke="#222223" stroke-width="1.8" stroke-linecap="round" stroke-linejoin="round"/>
</svg>
