<svg width="3" height="16" viewBox="0 0 3 16" fill="none" xmlns="http://www.w3.org/2000/svg">
<path d="M0 14C3.76041e-07 13.1716 0.671575 12.5 1.5 12.5C2.32843 12.5 3.00001 13.1716 3.00001 14C3 14.8284 2.32843 15.5 1.5 15.5C0.671573 15.5 -3.76038e-07 14.8284 0 14Z" fill="#222223"/>
<path d="M1.29301e-06 8C1.66905e-06 7.17157 0.671576 6.5 1.5 6.5C2.32843 6.5 3.00001 7.17157 3.00001 8C3.00001 8.82843 2.32843 9.5 1.5 9.5C0.671575 9.5 9.16971e-07 8.82843 1.29301e-06 8Z" fill="#222223"/>
<path d="M1.15551e-06 2C1.53155e-06 1.17157 0.671576 0.5 1.5 0.5C2.32843 0.5 3.00001 1.17157 3.00001 2C3.00001 2.82843 2.32843 3.5 1.5 3.5C0.671575 3.5 7.79468e-07 2.82843 1.15551e-06 2Z" fill="#222223"/>
</svg>
