<svg width="15" height="22" viewBox="0 0 15 22" fill="none" xmlns="http://www.w3.org/2000/svg">
<path d="M5.97638 6.40157C5.97638 5.48031 6.73228 5.12598 7.98425 5.12598C9.77953 5.12598 12.0472 5.66929 13.8425 6.6378V1.08661C11.8819 0.307086 9.94488 0 7.98425 0C3.18898 0 0 2.50394 0 6.68504C0 13.2047 8.97638 12.1654 8.97638 14.9764C8.97638 16.063 8.0315 16.4173 6.70866 16.4173C4.74803 16.4173 2.24409 15.6142 0.259843 14.5276V20.1496C2.45669 21.0945 4.67717 21.4961 6.70866 21.4961C11.622 21.4961 15 19.063 15 14.8346C14.9764 7.79528 5.97638 9.04724 5.97638 6.40157Z" fill="#6772E5"/>
</svg>
