<svg width="16" height="16" viewBox="0 0 16 16" fill="none" xmlns="http://www.w3.org/2000/svg">
<path fill-rule="evenodd" clip-rule="evenodd" d="M11.8105 1.96694C12.0629 2.21701 12.0647 2.62242 11.8087 2.87249L8.02452 6.57833L7.95767 6.63543C7.70188 6.82567 7.33627 6.80579 7.10405 6.57577C6.97826 6.45116 6.91406 6.28729 6.91406 6.12428C6.91406 5.96041 6.97826 5.79568 7.10579 5.67107L10.89 1.96438L10.9569 1.90728C11.2127 1.71704 11.5783 1.73692 11.8105 1.96694ZM11.8671 13.194C12.0624 13.445 12.0416 13.8048 11.8102 14.034C11.5569 14.2841 11.1448 14.285 10.8898 14.0349L5.19173 8.45307L5.13324 8.38767C5.04458 8.27382 5 8.13714 5 7.99987C5 7.83685 5.0642 7.67298 5.18999 7.54838C5.44332 7.29745 5.8554 7.2966 6.11046 7.54667L11.8085 13.1285L11.8671 13.194Z" fill="#222223"/>
<path d="M11.8087 2.87249L11.634 2.69368L11.6338 2.69387L11.8087 2.87249ZM11.8105 1.96694L11.9864 1.78933L11.9864 1.78932L11.8105 1.96694ZM8.02452 6.57833L8.18688 6.76844L8.19335 6.76291L8.19944 6.75695L8.02452 6.57833ZM7.95767 6.63543L8.10687 6.83602L8.11362 6.831L8.12002 6.82553L7.95767 6.63543ZM7.10405 6.57577L6.92812 6.75338L6.92812 6.75339L7.10405 6.57577ZM7.10579 5.67107L7.28051 5.84989L7.28073 5.84967L7.10579 5.67107ZM10.89 1.96438L10.7277 1.77427L10.7212 1.77981L10.7151 1.78578L10.89 1.96438ZM10.9569 1.90728L10.8077 1.70669L10.8009 1.71171L10.7945 1.71718L10.9569 1.90728ZM11.8102 14.034L11.9859 14.2119L11.9862 14.2116L11.8102 14.034ZM11.8671 13.194L12.0644 13.0405L12.0592 13.0338L12.0535 13.0274L11.8671 13.194ZM10.8898 14.0349L11.0648 13.8564L11.0647 13.8563L10.8898 14.0349ZM5.19173 8.45307L5.00537 8.61972L5.01088 8.62588L5.01678 8.63166L5.19173 8.45307ZM5.13324 8.38767L4.936 8.54127L4.94122 8.54798L4.94689 8.55432L5.13324 8.38767ZM5.18999 7.54838L5.01406 7.37076L5.01405 7.37076L5.18999 7.54838ZM6.11046 7.54667L5.93543 7.72518L5.93551 7.72526L6.11046 7.54667ZM11.8085 13.1285L11.9949 12.9619L11.9894 12.9557L11.9834 12.9499L11.8085 13.1285ZM11.9835 3.0513C12.3404 2.70249 12.3369 2.13654 11.9864 1.78933L11.6345 2.14455C11.7889 2.29748 11.7889 2.54235 11.634 2.69368L11.9835 3.0513ZM8.19944 6.75695L11.9837 3.05111L11.6338 2.69387L7.8496 6.39971L8.19944 6.75695ZM8.12002 6.82553L8.18688 6.76844L7.86216 6.38822L7.79531 6.44532L8.12002 6.82553ZM6.92812 6.75339C7.24982 7.07204 7.75384 7.09859 8.10687 6.83602L7.80847 6.43483C7.64993 6.55275 7.42271 6.53953 7.27999 6.39816L6.92812 6.75339ZM6.66406 6.12428C6.66406 6.3528 6.75407 6.58098 6.92812 6.75338L7.27999 6.39816C7.20245 6.32135 7.16406 6.22179 7.16406 6.12428H6.66406ZM6.93107 5.49226C6.7539 5.66537 6.66406 5.89522 6.66406 6.12428H7.16406C7.16406 6.02559 7.20262 5.92599 7.28051 5.84989L6.93107 5.49226ZM10.7151 1.78578L6.93085 5.49248L7.28073 5.84967L11.065 2.14298L10.7151 1.78578ZM10.7945 1.71718L10.7277 1.77427L11.0524 2.15449L11.1192 2.09739L10.7945 1.71718ZM11.9864 1.78932C11.6647 1.47067 11.1607 1.44412 10.8077 1.70669L11.1061 2.10788C11.2646 1.98996 11.4918 2.00318 11.6346 2.14456L11.9864 1.78932ZM11.9862 14.2116C12.3074 13.8934 12.3374 13.3914 12.0644 13.0405L11.6698 13.3476C11.7873 13.4986 11.7758 13.7162 11.6343 13.8564L11.9862 14.2116ZM10.7147 14.2134C11.0671 14.5589 11.6353 14.558 11.9859 14.2119L11.6346 13.8561C11.4785 14.0102 11.2225 14.011 11.0648 13.8564L10.7147 14.2134ZM5.01678 8.63166L10.7148 14.2135L11.0647 13.8563L5.36667 8.27448L5.01678 8.63166ZM4.94689 8.55432L5.00537 8.61972L5.37808 8.28642L5.3196 8.22102L4.94689 8.55432ZM4.75 7.99987C4.75 8.19139 4.8123 8.38243 4.936 8.54127L5.33049 8.23407C5.27686 8.1652 5.25 8.08289 5.25 7.99987H4.75ZM5.01405 7.37076C4.84001 7.54317 4.75 7.77135 4.75 7.99987H5.25C5.25 7.90236 5.28839 7.8028 5.36593 7.72599L5.01405 7.37076ZM6.28548 7.36816C5.93306 7.02263 5.36467 7.02346 5.01406 7.37076L5.36593 7.72599C5.52196 7.57144 5.77773 7.57056 5.93543 7.72518L6.28548 7.36816ZM11.9834 12.9499L6.2854 7.36808L5.93551 7.72526L11.6335 13.3071L11.9834 12.9499ZM12.0535 13.0274L11.9949 12.9619L11.6221 13.2951L11.6807 13.3607L12.0535 13.0274Z" fill="#222223"/>
</svg>
