<svg width="21" height="22" viewBox="0 0 21 22" fill="none" xmlns="http://www.w3.org/2000/svg">
<circle cx="10.5" cy="10.9082" r="9.85" stroke="#6C2FFF" stroke-width="1.3"/>
<path d="M7.58495 11.3934C7.32571 11.0703 6.85367 11.0186 6.53061 11.2778C6.20755 11.537 6.15581 12.0091 6.41505 12.3321L7.58495 11.3934ZM15.5979 7.86103C15.848 7.53084 15.783 7.06043 15.4528 6.81034C15.1226 6.56024 14.6522 6.62518 14.4021 6.95537L15.5979 7.86103ZM7 11.8627C6.41505 12.3321 6.41507 12.3322 6.41511 12.3322C6.41513 12.3322 6.41517 12.3323 6.41521 12.3323C6.4153 12.3325 6.41542 12.3326 6.41556 12.3328C6.41586 12.3332 6.41628 12.3337 6.41682 12.3344C6.4179 12.3357 6.41947 12.3376 6.42151 12.3402C6.42559 12.3453 6.43155 12.3527 6.43929 12.3623C6.45477 12.3814 6.47733 12.4094 6.50608 12.4448C6.56355 12.5156 6.64579 12.6164 6.74544 12.7374C6.94438 12.9788 7.21423 13.3022 7.49555 13.6267C7.77472 13.9488 8.07417 14.2825 8.33022 14.5396C8.4565 14.6665 8.58647 14.7892 8.70661 14.8851C8.7657 14.9322 8.83915 14.9864 8.92053 15.0324C8.97634 15.064 9.14629 15.1582 9.37037 15.1582V13.6582C9.4751 13.6582 9.55229 13.6822 9.58711 13.6946C9.62566 13.7084 9.65063 13.7221 9.65894 13.7268C9.67439 13.7355 9.67034 13.735 9.64221 13.7126C9.58791 13.6693 9.50453 13.5931 9.39322 13.4813C9.17409 13.2612 8.90144 12.9585 8.62899 12.6442C8.35869 12.3324 8.09741 12.0194 7.90312 11.7836C7.80614 11.6659 7.72625 11.5679 7.67074 11.4995C7.64299 11.4653 7.62135 11.4385 7.60675 11.4204C7.59944 11.4114 7.5939 11.4045 7.59023 11.3999C7.58839 11.3976 7.58703 11.3959 7.58614 11.3948C7.5857 11.3943 7.58538 11.3939 7.58518 11.3936C7.58508 11.3935 7.58501 11.3934 7.58497 11.3934C7.58495 11.3934 7.58495 11.3934 7.58494 11.3933C7.58494 11.3933 7.58495 11.3934 7 11.8627ZM9.37037 15.1582C9.52732 15.1582 9.6456 15.1101 9.69594 15.0876C9.75618 15.0606 9.80386 15.0307 9.83463 15.01C9.8963 14.9684 9.95021 14.9224 9.98996 14.8865C10.0725 14.812 10.1646 14.7169 10.258 14.6156C10.448 14.4093 10.6921 14.1236 10.9661 13.7926C11.5162 13.128 12.2149 12.2462 12.8992 11.3698C13.5845 10.4922 14.2591 9.61508 14.7621 8.95773C15.0137 8.62896 15.2225 8.35496 15.3685 8.16308C15.4414 8.06714 15.4987 7.99172 15.5378 7.94024C15.5573 7.9145 15.5723 7.89474 15.5824 7.8814C15.5875 7.87473 15.5913 7.86966 15.5939 7.86625C15.5952 7.86454 15.5962 7.86325 15.5968 7.86238C15.5972 7.86194 15.5974 7.86161 15.5976 7.86139C15.5977 7.86127 15.5978 7.86119 15.5978 7.86113C15.5978 7.86107 15.5979 7.86103 15 7.4082C14.4021 6.95537 14.4021 6.95539 14.4021 6.95544C14.402 6.95549 14.402 6.95556 14.4019 6.95566C14.4018 6.95586 14.4015 6.95617 14.4012 6.95658C14.4006 6.9574 14.3997 6.95865 14.3984 6.96031C14.3959 6.96362 14.3921 6.96859 14.3871 6.97517C14.3772 6.98831 14.3623 7.00787 14.343 7.03339C14.3042 7.08445 14.2473 7.15942 14.1746 7.25489C14.0294 7.44582 13.8214 7.71869 13.5708 8.04618C13.0695 8.70132 12.3981 9.57423 11.717 10.4466C11.0348 11.3202 10.3467 12.1885 9.8105 12.8363C9.54127 13.1616 9.31739 13.4227 9.15478 13.5992C9.07181 13.6893 9.01639 13.7446 8.98526 13.7727C8.96818 13.7881 8.9737 13.7814 8.99609 13.7663C9.00721 13.7588 9.03752 13.7389 9.08273 13.7187C9.11806 13.7028 9.22367 13.6582 9.37037 13.6582V15.1582Z" fill="#6C2FFF"/>
</svg>
