<svg width="287" height="68" viewBox="0 0 287 68" fill="none" xmlns="http://www.w3.org/2000/svg">
<rect x="0.397949" width="286.156" height="68" rx="16.1762" fill="white"/>
<path d="M66.198 39.5252V47.9995H67.2498V44.1794H71.6259V47.9995H72.6777V39.5252H71.6259V43.2123H67.2498V39.5252H66.198ZM75.4203 47.6731C75.8797 47.9391 76.4116 48.072 77.0161 48.072C77.6084 48.072 78.1403 47.9391 78.5997 47.6731C79.0591 47.4072 79.4218 47.0445 79.6877 46.5609C79.9416 46.0895 80.0746 45.5455 80.0746 44.9168C80.0746 44.3003 79.9416 43.7563 79.6877 43.2728C79.4218 42.8013 79.0591 42.4265 78.5997 42.1606C78.1403 41.8946 77.6084 41.7616 77.0161 41.7616C76.4116 41.7616 75.8797 41.8946 75.4203 42.1606C74.961 42.4265 74.5983 42.8013 74.3444 43.2728C74.0785 43.7563 73.9576 44.3003 73.9576 44.9168C73.9576 45.5455 74.0785 46.0895 74.3444 46.5609C74.5983 47.0445 74.961 47.4072 75.4203 47.6731ZM78.0799 46.8994C77.7656 47.0928 77.415 47.1896 77.0161 47.1896C76.605 47.1896 76.2545 47.0928 75.9402 46.8994C75.6258 46.706 75.3962 46.44 75.2269 46.0895C75.0577 45.751 74.973 45.352 74.973 44.9168C74.973 44.4816 75.0577 44.0948 75.2269 43.7442C75.3962 43.4057 75.6258 43.1277 75.9402 42.9343C76.2545 42.7408 76.605 42.6441 77.0161 42.6441C77.415 42.6441 77.7656 42.7408 78.0799 42.9343C78.3942 43.1277 78.636 43.4057 78.8052 43.7442C78.9745 44.0948 79.0591 44.4816 79.0591 44.9168C79.0591 45.352 78.9745 45.751 78.8052 46.0895C78.636 46.44 78.3942 46.706 78.0799 46.8994ZM80.4539 41.8342L82.4486 48.0116L83.5366 47.9995L85.084 43.4178L86.5709 47.9995H87.6589L89.714 41.8342H88.7106L87.1028 46.8511L85.5675 41.8342H84.6488L83.0289 46.8511L81.4936 41.8342H80.4539ZM99.4207 47.0928H99.1185C98.8405 47.0928 98.7075 46.9478 98.7075 46.6456V43.986C98.7075 43.2728 98.4899 42.7288 98.0547 42.3419C97.6195 41.9551 97.0151 41.7616 96.2293 41.7616C95.4798 41.7616 94.8753 41.9309 94.4159 42.2694C93.9566 42.6079 93.6906 43.0793 93.6181 43.6838H94.6094C94.6698 43.3695 94.8391 43.1277 95.1171 42.9343C95.3951 42.7408 95.7457 42.6441 96.1809 42.6441C96.6645 42.6441 97.0392 42.765 97.3052 42.9826C97.5711 43.2123 97.7162 43.5266 97.7162 43.9256V44.3487H95.9029C95.0929 44.3487 94.4764 44.5179 94.0533 44.8443C93.6302 45.1828 93.4247 45.6543 93.4247 46.2708C93.4247 46.8269 93.6302 47.2742 94.0412 47.5885C94.4522 47.9149 95.0083 48.072 95.6974 48.072C96.5919 48.072 97.281 47.7336 97.7646 47.0445C97.7646 47.3588 97.8613 47.6006 98.0305 47.7577C98.1998 47.927 98.4778 47.9995 98.8767 47.9995H99.4207V47.0928ZM97.7162 45.1828V45.485C97.7162 46.0169 97.5349 46.44 97.1964 46.7544C96.8458 47.0687 96.3743 47.2258 95.7699 47.2258C95.3589 47.2258 95.0325 47.1412 94.7907 46.9478C94.5489 46.7664 94.428 46.5247 94.428 46.2104C94.428 45.5334 94.8874 45.1828 95.8062 45.1828H97.7162ZM103.314 41.8342H103.036C102.528 41.8342 102.141 41.9188 101.863 42.088C101.573 42.2573 101.343 42.487 101.174 42.765L101.041 41.8342H100.183V47.9995H101.174V44.8564C101.174 44.2761 101.295 43.7926 101.549 43.3936C101.803 43.0068 102.226 42.8013 102.818 42.8013H103.314V41.8342ZM104.011 43.2607C103.769 43.7442 103.649 44.2882 103.649 44.9168C103.649 45.5455 103.769 46.0895 104.023 46.573C104.277 47.0566 104.64 47.4192 105.099 47.6852C105.559 47.9512 106.091 48.072 106.707 48.072C107.408 48.072 108.001 47.8786 108.484 47.4797C108.968 47.0808 109.27 46.5609 109.391 45.9323H108.387C108.279 46.3312 108.073 46.6456 107.759 46.8632C107.444 47.0808 107.07 47.1896 106.635 47.1896C106.054 47.1896 105.595 47.0082 105.244 46.6456C104.882 46.2829 104.7 45.7993 104.688 45.1949V45.1103H109.475C109.487 44.9168 109.5 44.7839 109.5 44.6872C109.475 44.0948 109.342 43.575 109.101 43.1277C108.847 42.6925 108.508 42.354 108.073 42.1122C107.638 41.8825 107.13 41.7616 106.574 41.7616C105.994 41.7616 105.486 41.8946 105.051 42.1606C104.604 42.4265 104.253 42.7892 104.011 43.2607ZM108.472 44.2882H104.749C104.797 43.8047 104.99 43.4057 105.353 43.0914C105.704 42.7892 106.115 42.632 106.586 42.632C107.106 42.632 107.541 42.7771 107.88 43.0672C108.218 43.3574 108.424 43.7684 108.472 44.2882ZM114.23 41.8342H113.178L115.596 48.0479L115.282 48.7853C115.185 49.0029 115.112 49.16 115.052 49.2568C114.991 49.3535 114.919 49.4139 114.822 49.4502C114.725 49.4985 114.58 49.5106 114.387 49.5106H113.504V50.4173H114.689C114.967 50.4173 115.197 50.381 115.366 50.2843C115.535 50.1997 115.668 50.0667 115.789 49.8733C115.898 49.692 116.031 49.4139 116.176 49.0392L119.017 41.8342H117.965L116.128 46.8632L114.23 41.8342ZM120.765 47.6731C121.225 47.9391 121.757 48.072 122.361 48.072C122.954 48.072 123.485 47.9391 123.945 47.6731C124.404 47.4072 124.767 47.0445 125.033 46.5609C125.287 46.0895 125.42 45.5455 125.42 44.9168C125.42 44.3003 125.287 43.7563 125.033 43.2728C124.767 42.8013 124.404 42.4265 123.945 42.1606C123.485 41.8946 122.954 41.7616 122.361 41.7616C121.757 41.7616 121.225 41.8946 120.765 42.1606C120.306 42.4265 119.943 42.8013 119.69 43.2728C119.424 43.7563 119.303 44.3003 119.303 44.9168C119.303 45.5455 119.424 46.0895 119.69 46.5609C119.943 47.0445 120.306 47.4072 120.765 47.6731ZM123.425 46.8994C123.111 47.0928 122.76 47.1896 122.361 47.1896C121.95 47.1896 121.6 47.0928 121.285 46.8994C120.971 46.706 120.741 46.44 120.572 46.0895C120.403 45.751 120.318 45.352 120.318 44.9168C120.318 44.4816 120.403 44.0948 120.572 43.7442C120.741 43.4057 120.971 43.1277 121.285 42.9343C121.6 42.7408 121.95 42.6441 122.361 42.6441C122.76 42.6441 123.111 42.7408 123.425 42.9343C123.739 43.1277 123.981 43.4057 124.15 43.7442C124.32 44.0948 124.404 44.4816 124.404 44.9168C124.404 45.352 124.32 45.751 124.15 46.0895C123.981 46.44 123.739 46.706 123.425 46.8994ZM131.863 41.8342H130.872V44.9168C130.872 45.618 130.703 46.162 130.389 46.5609C130.074 46.972 129.627 47.1654 129.071 47.1654C128.551 47.1654 128.152 47.0082 127.874 46.6697C127.596 46.3312 127.463 45.8477 127.463 45.207V41.8342H126.472V45.2674C126.472 46.2345 126.689 46.9478 127.137 47.3951C127.572 47.8544 128.164 48.072 128.902 48.072C129.748 48.072 130.401 47.7819 130.872 47.1775L131.005 47.9995H131.863V41.8342ZM133.275 40.8308C133.058 41.2539 132.949 41.7254 132.949 42.2331H133.964C133.964 41.677 134.121 41.2297 134.436 40.8912C134.75 40.5528 135.173 40.3835 135.705 40.3835C136.164 40.3835 136.527 40.5165 136.817 40.7583C137.107 41 137.252 41.3144 137.252 41.7012C137.252 42.0155 137.168 42.2936 137.023 42.5112C136.878 42.7408 136.648 42.9584 136.358 43.164C136.044 43.3816 135.814 43.5508 135.645 43.6959C135.475 43.8409 135.342 44.0102 135.234 44.2278C135.113 44.4454 135.064 44.7113 135.064 45.0015V45.4246H135.995V45.1103C135.995 44.8201 136.08 44.5784 136.249 44.3849C136.418 44.1915 136.696 43.9618 137.107 43.6717C137.47 43.4178 137.76 43.1277 137.978 42.8134C138.183 42.4991 138.292 42.1001 138.292 41.6045C138.292 41.1935 138.183 40.8308 137.966 40.5044C137.748 40.1901 137.446 39.9362 137.059 39.7428C136.66 39.5615 136.201 39.4648 135.693 39.4648C135.137 39.4648 134.641 39.5856 134.23 39.8274C133.819 40.0692 133.493 40.4077 133.275 40.8308ZM135.052 46.9115C134.919 47.0324 134.859 47.2016 134.859 47.3951C134.859 47.6006 134.919 47.7698 135.052 47.8907C135.173 48.0116 135.342 48.072 135.548 48.072C135.741 48.072 135.911 48.0116 136.044 47.8907C136.164 47.7698 136.237 47.6006 136.237 47.3951C136.237 47.2016 136.164 47.0324 136.044 46.9115C135.911 46.7906 135.741 46.7181 135.548 46.7181C135.342 46.7181 135.173 46.7906 135.052 46.9115Z" fill="#222223"/>
<path d="M66.192 19.8486V29.355H68.232V26.8526L69.5784 25.343L72.2984 29.355H74.7464L71.02 23.7654L74.5152 19.8486H72.04L68.232 24.119V19.8486H66.192ZM82.1013 27.7366H81.8837C81.7205 27.7366 81.6117 27.7094 81.5437 27.6414C81.4621 27.587 81.4349 27.4646 81.4349 27.2878V24.8262C81.4349 24.0102 81.1629 23.371 80.6189 22.9358C80.0749 22.5006 79.3133 22.283 78.3341 22.283C77.3821 22.283 76.6341 22.487 76.0629 22.8814C75.4917 23.2758 75.1653 23.8334 75.1109 24.5406H76.9605C77.0013 24.2822 77.1373 24.0782 77.3685 23.915C77.5861 23.7654 77.8853 23.6838 78.2389 23.6838C78.6333 23.6838 78.9461 23.779 79.1909 23.9694C79.4221 24.1598 79.5445 24.4046 79.5445 24.7174V25.0574H78.1573C77.1101 25.0574 76.3077 25.2614 75.7637 25.6694C75.2197 26.0774 74.9477 26.6486 74.9477 27.383C74.9477 28.0358 75.1789 28.5526 75.6549 28.9062C76.1309 29.2598 76.7565 29.4366 77.5453 29.4366C78.0621 29.4366 78.5109 29.3414 78.8917 29.1238C79.2589 28.9198 79.5717 28.6206 79.8301 28.2126C79.8029 28.9742 80.2381 29.355 81.1221 29.355H82.1013V27.7366ZM79.5445 26.3358V26.4718C79.5309 26.9614 79.3813 27.3422 79.0957 27.6278C78.7965 27.9134 78.4021 28.0494 77.9125 28.0494C77.5861 28.0494 77.3413 27.9814 77.1509 27.8318C76.9605 27.6958 76.8789 27.4918 76.8789 27.247C76.8789 26.9614 76.9877 26.7438 77.2053 26.5806C77.4229 26.4174 77.7357 26.3358 78.1437 26.3358H79.5445ZM83.292 23.983V27.3558C83.292 28.6886 83.9584 29.355 85.2912 29.355H86.8824V27.7366H85.8896C85.6448 27.7366 85.468 27.6822 85.3592 27.5734C85.2504 27.4646 85.2096 27.2878 85.2096 27.043V23.983H86.8008V22.3646H85.2096V20.4062H83.292V22.3646H82.136V23.983H83.292ZM87.7478 23.983C87.4486 24.527 87.3126 25.1526 87.3126 25.8734C87.3126 26.5942 87.4622 27.2198 87.7614 27.7638C88.0606 28.3078 88.4958 28.7158 89.067 29.0014C89.6382 29.3006 90.3046 29.4366 91.0934 29.4366C91.6918 29.4366 92.2222 29.3414 92.6846 29.1238C93.147 28.9062 93.5142 28.6206 93.7998 28.2398C94.0718 27.8726 94.2486 27.451 94.3302 26.9886H92.4398C92.3582 27.315 92.1814 27.5734 91.923 27.7366C91.6646 27.8998 91.3382 27.9814 90.9574 27.9814C90.4678 27.9814 90.0734 27.8454 89.8014 27.5462C89.5158 27.2606 89.3526 26.8662 89.3118 26.3494V26.295H94.3846C94.4118 26.1046 94.439 25.887 94.439 25.6422C94.4254 24.9622 94.2622 24.3774 93.963 23.8742C93.6638 23.371 93.2422 22.9766 92.6982 22.7046C92.1542 22.4326 91.5422 22.283 90.835 22.283C90.1278 22.283 89.5158 22.4326 88.9854 22.7318C88.455 23.031 88.047 23.439 87.7478 23.983ZM92.5214 25.0438H89.3526C89.407 24.6358 89.5702 24.323 89.8558 24.0782C90.1414 23.8334 90.495 23.711 90.9166 23.711C91.3518 23.711 91.7054 23.8334 91.991 24.0646C92.2766 24.2958 92.4534 24.6222 92.5214 25.0438Z" fill="#222223"/>
<mask id="mask0_201_4882" style="mask-type:alpha" maskUnits="userSpaceOnUse" x="12" y="12" width="45" height="44">
<circle cx="34.3979" cy="34" r="21.9111" fill="#C4C4C4"/>
</mask>
<g mask="url(#mask0_201_4882)">
<circle cx="34.3979" cy="34" r="21.9111" fill="#F480FF"/>
<path d="M28.1402 25.1545L28.1402 39.6499H31.2508V35.8342L33.3038 33.5324L37.4513 39.6499H41.184L35.502 31.1269L40.8315 25.1545H37.0573L31.2508 31.666V25.1545H28.1402Z" fill="white"/>
</g>
<path d="M223.14 24.8227L219.888 27.5911V28.667H225.884V27.4944H221.798L224.047 25.6206C224.639 25.1249 225.086 24.6656 225.388 24.2304C225.679 23.7952 225.836 23.2995 225.836 22.7193C225.836 21.9335 225.57 21.3049 225.05 20.8334C224.518 20.3619 223.793 20.1201 222.85 20.1201C222.257 20.1201 221.738 20.241 221.302 20.4828C220.855 20.7246 220.504 21.0631 220.263 21.4741C220.021 21.8972 219.9 22.3687 219.9 22.9006V23.1303H221.242V22.9731C221.242 22.4654 221.387 22.0544 221.677 21.7401C221.967 21.4257 222.366 21.2686 222.85 21.2686C223.345 21.2686 223.744 21.4016 224.034 21.6675C224.325 21.9335 224.47 22.3082 224.47 22.7797C224.47 23.1545 224.349 23.4929 224.131 23.8073C223.914 24.1216 223.575 24.4601 223.14 24.8227ZM238.894 23.0698C238.459 22.6346 237.915 22.4049 237.238 22.4049C236.73 22.4049 236.307 22.5137 235.956 22.7072C235.593 22.9006 235.315 23.1786 235.098 23.5292C234.917 23.1545 234.663 22.8764 234.336 22.683C233.998 22.5017 233.623 22.4049 233.188 22.4049C232.414 22.417 231.81 22.7072 231.374 23.2874L231.229 22.4775H230.093V28.667H231.399V25.3546C231.399 24.7985 231.52 24.3633 231.785 24.0249C232.051 23.6985 232.402 23.5292 232.849 23.5292C233.272 23.5292 233.599 23.6743 233.816 23.9523C234.034 24.2304 234.155 24.6414 234.155 25.1854V28.667H235.473V25.3184C235.473 24.7623 235.593 24.3271 235.859 24.0128C236.125 23.6985 236.476 23.5292 236.935 23.5292C237.358 23.5292 237.685 23.6743 237.902 23.9523C238.12 24.2425 238.229 24.6535 238.229 25.1854V28.667H239.534V25.1733C239.534 24.2062 239.317 23.505 238.894 23.0698ZM241.939 20.2289C241.782 20.0839 241.588 19.9993 241.371 19.9993C241.141 19.9993 240.948 20.0839 240.803 20.2289C240.646 20.374 240.573 20.5674 240.573 20.785C240.573 21.0147 240.646 21.2081 240.803 21.3532C240.948 21.4983 241.141 21.5708 241.371 21.5708C241.588 21.5708 241.782 21.4983 241.939 21.3532C242.084 21.2081 242.169 21.0147 242.169 20.785C242.169 20.5674 242.084 20.374 241.939 20.2289ZM240.718 22.4775V28.667H242.024V22.4775H240.718ZM248.357 23.0819C247.897 22.6346 247.293 22.4049 246.567 22.4049C245.709 22.4049 245.044 22.7072 244.585 23.2874L244.44 22.4775H243.303V28.667H244.609V25.5481C244.609 24.9194 244.754 24.4359 245.044 24.0732C245.334 23.7105 245.745 23.5292 246.265 23.5292C246.749 23.5292 247.111 23.6864 247.365 23.9886C247.607 24.3029 247.74 24.7502 247.74 25.3305V28.667H249.058V25.2579C249.058 24.2666 248.816 23.5413 248.357 23.0819ZM259.262 27.5306H259.008C258.73 27.5306 258.597 27.3856 258.597 27.0954V24.6535C258.597 23.9281 258.367 23.3721 257.92 22.9852C257.461 22.5984 256.82 22.4049 255.998 22.4049C255.212 22.4049 254.583 22.5863 254.1 22.9248C253.616 23.2633 253.338 23.7468 253.278 24.3633H254.559C254.608 24.0974 254.753 23.8798 254.994 23.7105C255.236 23.5413 255.55 23.4567 255.937 23.4567C256.36 23.4567 256.699 23.5655 256.941 23.7589C257.182 23.9523 257.303 24.2304 257.303 24.5689V24.9436H255.744C254.873 24.9436 254.221 25.1249 253.773 25.4634C253.314 25.8019 253.096 26.2976 253.096 26.9262C253.096 27.4944 253.302 27.9417 253.725 28.256C254.136 28.5824 254.692 28.7395 255.393 28.7395C256.288 28.7395 256.965 28.3889 257.436 27.6757C257.436 28.0021 257.521 28.2439 257.702 28.4131C257.872 28.5824 258.162 28.667 258.573 28.667H259.262V27.5306ZM257.303 25.9107V26.1283C257.291 26.6119 257.134 26.9987 256.832 27.2889C256.53 27.579 256.107 27.7241 255.575 27.7241C255.212 27.7241 254.934 27.6515 254.728 27.4823C254.523 27.3251 254.426 27.1075 254.426 26.8416C254.426 26.5393 254.535 26.3097 254.753 26.1525C254.97 25.9953 255.272 25.9107 255.683 25.9107H257.303ZM265.981 22.4775H264.845L264.7 23.4446C264.482 23.1303 264.216 22.8764 263.878 22.683C263.539 22.5017 263.128 22.4049 262.669 22.4049C262.113 22.4049 261.605 22.5379 261.17 22.8039C260.722 23.0698 260.372 23.4325 260.118 23.904C259.864 24.3875 259.743 24.9315 259.743 25.5481C259.743 26.2009 259.864 26.7569 260.118 27.2284C260.36 27.6999 260.71 28.0625 261.158 28.3164C261.593 28.5703 262.101 28.6912 262.669 28.6912C263.563 28.6912 264.228 28.3527 264.688 27.6757V28.3648C264.688 29.5253 264.095 30.0935 262.911 30.0935C262.451 30.0935 262.076 30.0089 261.786 29.8154C261.496 29.622 261.303 29.3561 261.23 29.0055H259.9C259.949 29.6945 260.239 30.2265 260.771 30.6012C261.291 30.976 261.968 31.1573 262.814 31.1573C263.89 31.1573 264.688 30.9276 265.207 30.4441C265.715 29.9605 265.981 29.2835 265.981 28.4131V22.4775ZM264.192 27.035C263.853 27.4097 263.418 27.5911 262.886 27.5911C262.342 27.5911 261.907 27.4097 261.581 27.0229C261.242 26.6481 261.085 26.1525 261.085 25.5481C261.085 24.9436 261.242 24.4601 261.581 24.0732C261.907 23.6985 262.342 23.505 262.886 23.505C263.418 23.505 263.853 23.6985 264.192 24.0853C264.518 24.4721 264.688 24.9678 264.688 25.5722C264.688 26.1767 264.518 26.6602 264.192 27.035ZM268.526 28.3527C269.01 28.6186 269.554 28.7395 270.182 28.7395C270.799 28.7395 271.343 28.6186 271.827 28.3527C272.31 28.0867 272.673 27.7241 272.939 27.2405C273.205 26.7569 273.338 26.2009 273.338 25.5722C273.338 24.9557 273.205 24.4117 272.939 23.9281C272.673 23.4446 272.31 23.0698 271.827 22.8039C271.343 22.5379 270.799 22.4049 270.182 22.4049C269.554 22.4049 269.01 22.5379 268.526 22.8039C268.043 23.0698 267.68 23.4446 267.414 23.9281C267.148 24.4117 267.027 24.9557 267.027 25.5722C267.027 26.2009 267.148 26.7569 267.414 27.2405C267.68 27.7241 268.043 28.0867 268.526 28.3527ZM271.5 27.0592C271.162 27.446 270.726 27.6273 270.182 27.6273C269.626 27.6273 269.191 27.446 268.865 27.0592C268.526 26.6723 268.369 26.1767 268.369 25.5722C268.369 24.9678 268.526 24.4842 268.865 24.0974C269.191 23.7105 269.626 23.5171 270.182 23.5171C270.726 23.5171 271.162 23.7105 271.5 24.0974C271.839 24.4842 272.008 24.9678 272.008 25.5722C272.008 26.1767 271.839 26.6723 271.5 27.0592Z" fill="#B1B1B3"/>
<rect x="252.711" y="35.8218" width="19.0889" height="17.5111" rx="6.04444" fill="#316AFF"/>
<path d="M264.393 45.3403C264.087 45.0442 263.695 44.8432 263.219 44.7268C263.653 44.6211 264.002 44.4307 264.266 44.1556C264.531 43.8806 264.668 43.5315 264.668 43.0873C264.668 42.4949 264.425 42.0083 263.949 41.6487C263.473 41.2891 262.807 41.1092 261.96 41.1092C261.146 41.1092 260.501 41.3208 260.014 41.7227C259.528 42.1353 259.284 42.6959 259.284 43.4046H260.776C260.776 43.0661 260.903 42.8017 261.135 42.6007C261.368 42.4103 261.664 42.3045 262.024 42.3045C262.352 42.3045 262.616 42.3891 262.828 42.5478C263.029 42.7171 263.135 42.9392 263.135 43.2248C263.135 43.5315 263.018 43.7748 262.796 43.9547C262.574 44.1345 262.257 44.2191 261.855 44.2191H261.209V45.4355H261.939C262.373 45.4355 262.711 45.5202 262.944 45.6894C263.177 45.8587 263.293 46.0914 263.293 46.3875C263.293 46.7155 263.166 46.9693 262.934 47.1597C262.701 47.3501 262.405 47.4453 262.045 47.4453C261.622 47.4453 261.283 47.329 261.019 47.0857C260.744 46.853 260.606 46.5251 260.606 46.1125H259.094C259.094 46.9059 259.348 47.5299 259.866 47.9742C260.374 48.4185 261.072 48.6406 261.96 48.6406C262.532 48.6406 263.039 48.556 263.484 48.3762C263.917 48.2069 264.256 47.9531 264.489 47.6357C264.721 47.3184 264.848 46.9376 264.848 46.5145C264.848 46.0279 264.69 45.6365 264.393 45.3403Z" fill="white"/>
</svg>
