<svg xmlns="http://www.w3.org/2000/svg" xmlns:xlink="http://www.w3.org/1999/xlink" width="99" height="60" viewBox="0 0 99 60">
    <defs>
        <path id="c180a" d="M765.18 127.89c1.12 0 2.12-.04 3-.1l.5-.06.03 1.77c-1.38.34-2.63.5-3.74.5-1.36 0-2.34-.36-2.96-1.07-.6-.72-.91-1.88-.91-3.5 0-3.21 1.32-4.82 3.97-4.82 2.62 0 3.93 1.35 3.93 4.05l-.18 1.67h-5.3c.02.55.17.95.45 1.2.28.24.68.36 1.21.36zm1.43-3.39c0-.71-.11-1.21-.34-1.5-.22-.28-.62-.42-1.2-.42-.56 0-.96.15-1.2.44-.23.3-.35.79-.36 1.48zm-9.39-3.89c.63 0 1.43.1 2.4.29l.49.1-.08 1.9c-.94-.09-1.65-.14-2.1-.14-.83 0-1.38.18-1.65.53-.27.35-.4 1.02-.4 2s.13 1.65.4 2.02c.27.36.83.54 1.66.54l2.1-.14.07 1.92a16.7 16.7 0 0 1-2.94.37c-1.33 0-2.29-.37-2.87-1.12-.58-.74-.87-1.94-.87-3.59s.3-2.84.9-3.58c.6-.73 1.56-1.1 2.9-1.1m-10.64 9.18h-2.42v-8.96h2.4v.5a4.54 4.54 0 0 1 2.25-.72c1.2 0 2.03.36 2.49 1.06.46.7.69 1.8.69 3.26v4.86h-2.42V125c0-.76-.09-1.33-.27-1.69-.18-.36-.54-.55-1.08-.55-.5 0-.97.09-1.43.25l-.21.08zm-4.45-2.44c.02.29.07.49.14.6.07.11.22.2.45.24l-.07 1.81c-.61 0-1.1-.04-1.47-.12a3.27 3.27 0 0 1-1.1-.5c-.87.41-1.75.62-2.65.62-1.86 0-2.8-.98-2.8-2.94 0-.95.26-1.63.78-2.03.52-.4 1.3-.64 2.38-.7l1.92-.15v-.56c0-.37-.08-.62-.25-.76-.17-.14-.44-.2-.8-.2l-3.4.14-.07-1.67c1.29-.34 2.51-.52 3.67-.52 1.16 0 2 .24 2.5.72.51.48.77 1.24.77 2.3zm-4.06-1.36c-.67.06-1 .42-1 1.07 0 .66.29.99.88.99.45 0 .95-.07 1.49-.22l.26-.07v-1.91zm-15.26 3.8h-2.41v-8.96h2.39v.5a4.45 4.45 0 0 1 2.12-.72c.98 0 1.73.28 2.25.84a6.77 6.77 0 0 1 3.03-.84c1.19 0 2.01.35 2.48 1.03.46.69.69 1.79.69 3.3v4.85h-2.41V125c0-.76-.09-1.33-.26-1.69-.16-.36-.5-.55-1-.55-.39 0-.86.09-1.4.25l-.28.1c.05.89.07 1.57.07 2.04v4.64h-2.41v-4.6c0-.9-.08-1.52-.23-1.88-.16-.36-.5-.55-1.03-.55-.47 0-.93.09-1.39.25l-.21.08zm-8.84 0v-8.96h2.39v.95c1-.6 1.96-.99 2.87-1.17v2.42c-.97.2-1.8.41-2.5.63l-.36.12v6zm-8.83-7.95c.64-.82 1.7-1.23 3.2-1.23 1.48 0 2.54.41 3.18 1.23.63.82.95 1.97.95 3.45 0 3.14-1.38 4.71-4.14 4.71s-4.14-1.57-4.14-4.71c0-1.48.32-2.63.95-3.45m1.87 5.47c.24.43.69.64 1.32.64.64 0 1.08-.21 1.33-.64.24-.43.36-1.1.36-2.02 0-.92-.12-1.6-.36-2-.25-.43-.7-.63-1.33-.63-.63 0-1.08.2-1.32.62a4.1 4.1 0 0 0-.37 2c0 .92.12 1.6.37 2.03m-5.6-4.44v6.92h-2.4v-9.36c0-1.29.19-2.18.57-2.67.39-.49 1.07-.73 2.05-.73.44 0 1 .06 1.68.18l.38.05-.04 1.95-1.33-.03c-.36 0-.6.1-.72.29-.12.19-.18.52-.18.98v.38h2.18v2.04zm-4.02-1.09h-3.01v4.43c0 1.16.08 1.92.25 2.28.17.36.56.54 1.19.54l1.66-.13.07.92c-.8.11-1.4.18-1.82.18-.91 0-1.55-.23-1.9-.68-.35-.45-.53-1.3-.53-2.57V118h1.08v2.82h3zm-8.68 0v8h-1.08v-9.87c0-1.26.17-2.12.52-2.57.35-.45.96-.67 1.85-.67l1.75.09v.91l-1.59-.03c-.56 0-.94.15-1.15.46-.2.31-.3.92-.3 1.83v.9h2.72v.95zm-10.51 3.51c0-1.68.29-2.88.86-3.58.57-.7 1.54-1.06 2.91-1.06 1.38 0 2.35.35 2.92 1.06.57.7.85 1.9.85 3.58 0 1.68-.26 2.89-.78 3.6-.52.72-1.51 1.08-2.98 1.08-1.46 0-2.46-.36-2.99-1.08-.53-.71-.79-1.92-.79-3.6m1.12-.03c0 1.42.16 2.4.5 2.94.32.55 1.04.82 2.15.82 1.11 0 1.84-.28 2.17-.83.34-.55.5-1.52.5-2.93 0-1.4-.18-2.36-.56-2.88-.38-.52-1.08-.78-2.1-.78s-1.72.26-2.1.77c-.37.51-.56 1.48-.56 2.9m-6.1-3.64c-1.42 0-2.13.51-2.13 1.53 0 .46.15.8.47.98.3.2 1.01.38 2.11.57 1.1.18 1.87.44 2.32.76.45.32.68.94.68 1.85 0 .92-.3 1.59-.88 2.01-.6.43-1.45.64-2.6.64-.65 0-1.5-.09-2.55-.25l-.52-.08.07-.95c1.34.2 2.37.31 3.1.31.72 0 1.28-.13 1.68-.38.4-.25.6-.67.6-1.27s-.16-1-.5-1.2a6.96 6.96 0 0 0-2.12-.54 5.75 5.75 0 0 1-2.3-.71c-.44-.31-.66-.9-.66-1.76s.3-1.49.92-1.88a4.1 4.1 0 0 1 2.27-.6c.72 0 1.62.08 2.7.24l.48.07-.03.95c-1.29-.19-2.32-.29-3.12-.29"/>
        <path id="c180b" d="M731.27 75.57h-10.19v3.34h6.84c1.85 0 3.35-1.5 3.35-3.34"/>
        <path id="c180c" d="M735.2 70h-10.77a3.35 3.35 0 0 0-3.35 3.34h10.77c1.85 0 3.35-1.5 3.35-3.34"/>
        <path id="c180d" d="M726.44 86.04l-11.67-1.49a1.76 1.76 0 0 1-1.52-1.33c-.24-1.1.6-2.08 1.67-2.08h6.16V78.9h-2.52a1.67 1.67 0 1 1 0-3.34h2.52v-2.23h-17.63v1.43c0 2.34 1.74 4.3 4.07 4.6h-4.07v1.44c0 2.33 1.74 4.3 4.07 4.6h-4.07v1.44c0 2.33 1.74 4.3 4.06 4.6l17.94 2.33c.95.12 1.64 1 1.48 1.98-.14.85-.94 1.43-1.8 1.43h-13.86a7.8 7.8 0 0 0-7.82 7.8h21.48c5 0 9.37-3.71 9.8-8.68a9.53 9.53 0 0 0-8.29-10.27"/>
    </defs>
    <g>
        <g transform="translate(-670 -70)"><g><use fill="#434f8b" xlink:href="#c180a"/></g><g><g><use fill="#eb660b" xlink:href="#c180b"/></g><g>
        <use class="logo_md_color" fill="#eb660b" xlink:href="#c180c"/></g><g><use class="logo_md_color" fill="#434f8b" xlink:href="#c180d"/></g></g></g>
    </g>
</svg>
