<svg width="22" height="22" viewBox="0 0 22 22" fill="none" xmlns="http://www.w3.org/2000/svg">
<path d="M11.917 8.25H6.41699" stroke="#222223" stroke-width="1.7" stroke-linecap="round" stroke-linejoin="round"/>
<path d="M20.1665 10.0558V11.9442C20.1665 12.4484 19.7632 12.8608 19.2499 12.8792H17.4532C16.4632 12.8792 15.5557 12.155 15.4732 11.165C15.4182 10.5875 15.6382 10.0467 16.0232 9.67083C16.3624 9.32249 16.8299 9.12085 17.3432 9.12085H19.2499C19.7632 9.13918 20.1665 9.55164 20.1665 10.0558Z" stroke="#222223" stroke-width="1.7" stroke-linecap="round" stroke-linejoin="round"/>
<path d="M16.023 9.67074C15.638 10.0466 15.418 10.5874 15.473 11.1649C15.5555 12.1549 16.463 12.8791 17.453 12.8791H19.2497V14.2083C19.2497 16.9583 17.4163 18.7916 14.6663 18.7916H6.41634C3.66634 18.7916 1.83301 16.9583 1.83301 14.2083V7.79159C1.83301 5.29825 3.33634 3.55658 5.67384 3.26325C5.91218 3.22658 6.15967 3.20825 6.41634 3.20825H14.6663C14.9047 3.20825 15.1338 3.21741 15.3538 3.25407C17.7188 3.52907 19.2497 5.27992 19.2497 7.79159V9.12076H17.343C16.8297 9.12076 16.3622 9.32241 16.023 9.67074Z" stroke="#222223" stroke-width="1.7" stroke-linecap="round" stroke-linejoin="round"/>
</svg>
