<svg width="200" height="48" viewBox="0 0 200 48" fill="none" xmlns="http://www.w3.org/2000/svg">
<rect width="199.897" height="48" rx="11.4185" fill="white"/>
<path d="M46.1047 28.0257L47.8455 33.999H48.7329L50.0897 29.263L51.4551 33.999H52.3425L54.0919 28.0257H53.3239L51.9159 33.0433L50.4993 28.0257H49.7484L48.2807 33.0433L46.8812 28.0257H46.1047ZM58.2236 30.0737C57.8993 29.758 57.4727 29.5958 56.9436 29.5958C56.6023 29.5958 56.3121 29.6726 56.0732 29.8092C55.8343 29.9542 55.6465 30.142 55.51 30.3638V28.0257H54.8103V33.999H55.51V31.823C55.51 31.3366 55.6209 30.9526 55.8599 30.6625C56.0988 30.3809 56.4145 30.2358 56.8241 30.2358C57.1996 30.2358 57.4983 30.3553 57.7031 30.5942C57.9079 30.8332 58.0103 31.1745 58.0103 31.6182V33.999H58.71V31.5756C58.71 30.8929 58.5479 30.398 58.2236 30.0737ZM59.7043 30.654C59.5337 30.9953 59.4483 31.3793 59.4483 31.823C59.4483 32.2668 59.5337 32.6508 59.7129 32.9921C59.8921 33.3334 60.1481 33.5894 60.4723 33.7772C60.7966 33.9649 61.1721 34.0502 61.6073 34.0502C62.1022 34.0502 62.5203 33.9137 62.8617 33.6321C63.203 33.3505 63.4163 32.9836 63.5017 32.5398H62.7934C62.7166 32.8214 62.5715 33.0433 62.3497 33.1969C62.1278 33.3505 61.8633 33.4273 61.5561 33.4273C61.1465 33.4273 60.8222 33.2993 60.5747 33.0433C60.3187 32.7873 60.1907 32.446 60.1822 32.0193V31.9596H63.5614C63.5699 31.823 63.5785 31.7292 63.5785 31.6609C63.5614 31.2428 63.4675 30.8758 63.2969 30.5601C63.1177 30.2529 62.8787 30.014 62.5715 29.8433C62.2643 29.6812 61.9059 29.5958 61.5134 29.5958C61.1038 29.5958 60.7454 29.6897 60.4382 29.8774C60.1225 30.0652 59.875 30.3212 59.7043 30.654ZM62.8531 31.3793H60.2249C60.259 31.038 60.3955 30.7564 60.6515 30.5345C60.899 30.3212 61.1891 30.2102 61.5219 30.2102C61.8889 30.2102 62.1961 30.3126 62.435 30.5174C62.6739 30.7222 62.819 31.0124 62.8531 31.3793ZM66.5871 29.647H66.3908C66.0324 29.647 65.7593 29.7068 65.5631 29.8262C65.3583 29.9457 65.1961 30.1078 65.0767 30.3041L64.9828 29.647H64.3769V33.999H65.0767V31.7804C65.0767 31.3708 65.162 31.0294 65.3412 30.7478C65.5204 30.4748 65.8191 30.3297 66.2372 30.3297H66.5871V29.647ZM67.0793 30.654C66.9087 30.9953 66.8233 31.3793 66.8233 31.823C66.8233 32.2668 66.9087 32.6508 67.0879 32.9921C67.2671 33.3334 67.5231 33.5894 67.8473 33.7772C68.1716 33.9649 68.5471 34.0502 68.9823 34.0502C69.4772 34.0502 69.8953 33.9137 70.2367 33.6321C70.578 33.3505 70.7913 32.9836 70.8767 32.5398H70.1684C70.0916 32.8214 69.9465 33.0433 69.7247 33.1969C69.5028 33.3505 69.2383 33.4273 68.9311 33.4273C68.5215 33.4273 68.1972 33.2993 67.9497 33.0433C67.6937 32.7873 67.5657 32.446 67.5572 32.0193V31.9596H70.9364C70.9449 31.823 70.9535 31.7292 70.9535 31.6609C70.9364 31.2428 70.8425 30.8758 70.6719 30.5601C70.4927 30.2529 70.2537 30.014 69.9465 29.8433C69.6393 29.6812 69.2809 29.5958 68.8884 29.5958C68.4788 29.5958 68.1204 29.6897 67.8132 29.8774C67.4975 30.0652 67.25 30.3212 67.0793 30.654ZM70.2281 31.3793H67.5999C67.634 31.038 67.7705 30.7564 68.0265 30.5345C68.274 30.3212 68.5641 30.2102 68.8969 30.2102C69.2639 30.2102 69.5711 30.3126 69.81 30.5174C70.0489 30.7222 70.194 31.0124 70.2281 31.3793ZM78.0557 33.359H77.8423C77.6461 33.359 77.5522 33.2566 77.5522 33.0433V31.166C77.5522 30.6625 77.3986 30.2785 77.0914 30.0054C76.7842 29.7324 76.3575 29.5958 75.8029 29.5958C75.2738 29.5958 74.8471 29.7153 74.5229 29.9542C74.1986 30.1932 74.0109 30.526 73.9597 30.9526H74.6594C74.7021 30.7308 74.8215 30.5601 75.0178 30.4236C75.2141 30.287 75.4615 30.2188 75.7687 30.2188C76.1101 30.2188 76.3746 30.3041 76.5623 30.4577C76.7501 30.6198 76.8525 30.8417 76.8525 31.1233V31.422H75.5725C75.0007 31.422 74.5655 31.5414 74.2669 31.7718C73.9682 32.0108 73.8231 32.3436 73.8231 32.7788C73.8231 33.1713 73.9682 33.487 74.2583 33.7089C74.5485 33.9393 74.941 34.0502 75.4274 34.0502C76.0589 34.0502 76.5453 33.8113 76.8866 33.3249C76.8866 33.5468 76.9549 33.7174 77.0743 33.8284C77.1938 33.9478 77.3901 33.999 77.6717 33.999H78.0557V33.359ZM76.8525 32.0108V32.2241C76.8525 32.5996 76.7245 32.8982 76.4855 33.1201C76.2381 33.342 75.9053 33.4529 75.4786 33.4529C75.1885 33.4529 74.9581 33.3932 74.7874 33.2566C74.6167 33.1286 74.5314 32.958 74.5314 32.7361C74.5314 32.2582 74.8557 32.0108 75.5042 32.0108H76.8525ZM80.8037 29.647H80.6075C80.2491 29.647 79.976 29.7068 79.7797 29.8262C79.5749 29.9457 79.4128 30.1078 79.2933 30.3041L79.1995 29.647H78.5936V33.999H79.2933V31.7804C79.2933 31.3708 79.3787 31.0294 79.5579 30.7478C79.7371 30.4748 80.0357 30.3297 80.4539 30.3297H80.8037V29.647ZM81.296 30.654C81.1253 30.9953 81.04 31.3793 81.04 31.823C81.04 32.2668 81.1253 32.6508 81.3045 32.9921C81.4837 33.3334 81.7397 33.5894 82.064 33.7772C82.3883 33.9649 82.7637 34.0502 83.1989 34.0502C83.6939 34.0502 84.112 33.9137 84.4533 33.6321C84.7947 33.3505 85.008 32.9836 85.0933 32.5398H84.3851C84.3083 32.8214 84.1632 33.0433 83.9413 33.1969C83.7195 33.3505 83.4549 33.4273 83.1477 33.4273C82.7381 33.4273 82.4139 33.2993 82.1664 33.0433C81.9104 32.7873 81.7824 32.446 81.7739 32.0193V31.9596H85.1531C85.1616 31.823 85.1701 31.7292 85.1701 31.6609C85.1531 31.2428 85.0592 30.8758 84.8885 30.5601C84.7093 30.2529 84.4704 30.014 84.1632 29.8433C83.856 29.6812 83.4976 29.5958 83.1051 29.5958C82.6955 29.5958 82.3371 29.6897 82.0299 29.8774C81.7141 30.0652 81.4667 30.3212 81.296 30.654ZM84.4448 31.3793H81.8165C81.8507 31.038 81.9872 30.7564 82.2432 30.5345C82.4907 30.3212 82.7808 30.2102 83.1136 30.2102C83.4805 30.2102 83.7877 30.3126 84.0267 30.5174C84.2656 30.7222 84.4107 31.0124 84.4448 31.3793ZM88.5091 29.647H87.7667L89.4734 34.0332L89.2515 34.5537C89.1833 34.7073 89.1321 34.8182 89.0894 34.8865C89.0467 34.9548 88.9955 34.9974 88.9273 35.023C88.859 35.0572 88.7566 35.0657 88.6201 35.0657H87.9971V35.7057H88.8334C89.0297 35.7057 89.1918 35.6801 89.3113 35.6118C89.4307 35.5521 89.5246 35.4582 89.6099 35.3217C89.6867 35.1937 89.7806 34.9974 89.883 34.7329L91.8883 29.647H91.1459L89.8489 33.1969L88.5091 29.647ZM93.1225 33.7686C93.4468 33.9564 93.8223 34.0502 94.2489 34.0502C94.6671 34.0502 95.0425 33.9564 95.3668 33.7686C95.6911 33.5809 95.9471 33.3249 96.1348 32.9836C96.314 32.6508 96.4079 32.2668 96.4079 31.823C96.4079 31.3878 96.314 31.0038 96.1348 30.6625C95.9471 30.3297 95.6911 30.0652 95.3668 29.8774C95.0425 29.6897 94.6671 29.5958 94.2489 29.5958C93.8223 29.5958 93.4468 29.6897 93.1225 29.8774C92.7983 30.0652 92.5423 30.3297 92.3631 30.6625C92.1753 31.0038 92.09 31.3878 92.09 31.823C92.09 32.2668 92.1753 32.6508 92.3631 32.9836C92.5423 33.3249 92.7983 33.5809 93.1225 33.7686ZM94.9999 33.2225C94.778 33.359 94.5305 33.4273 94.2489 33.4273C93.9588 33.4273 93.7113 33.359 93.4895 33.2225C93.2676 33.086 93.1055 32.8982 92.986 32.6508C92.8665 32.4118 92.8068 32.1302 92.8068 31.823C92.8068 31.5158 92.8665 31.2428 92.986 30.9953C93.1055 30.7564 93.2676 30.5601 93.4895 30.4236C93.7113 30.287 93.9588 30.2188 94.2489 30.2188C94.5305 30.2188 94.778 30.287 94.9999 30.4236C95.2217 30.5601 95.3924 30.7564 95.5119 30.9953C95.6313 31.2428 95.6911 31.5158 95.6911 31.823C95.6911 32.1302 95.6313 32.4118 95.5119 32.6508C95.3924 32.8982 95.2217 33.086 94.9999 33.2225ZM100.956 29.647H100.257V31.823C100.257 32.318 100.137 32.702 99.9153 32.9836C99.6935 33.2737 99.3777 33.4102 98.9852 33.4102C98.6183 33.4102 98.3367 33.2993 98.1404 33.0604C97.9441 32.8214 97.8503 32.4801 97.8503 32.0278V29.647H97.1505V32.0705C97.1505 32.7532 97.3041 33.2566 97.6199 33.5724C97.9271 33.8966 98.3452 34.0502 98.8657 34.0502C99.4631 34.0502 99.9239 33.8454 100.257 33.4188L100.351 33.999H100.956V29.647ZM101.953 28.9388C101.799 29.2374 101.723 29.5702 101.723 29.9286H102.439C102.439 29.5361 102.55 29.2204 102.772 28.9814C102.994 28.7425 103.293 28.623 103.668 28.623C103.992 28.623 104.248 28.7169 104.453 28.8876C104.658 29.0582 104.76 29.2801 104.76 29.5532C104.76 29.775 104.701 29.9713 104.598 30.1249C104.496 30.287 104.334 30.4406 104.129 30.5857C103.907 30.7393 103.745 30.8588 103.625 30.9612C103.506 31.0636 103.412 31.183 103.335 31.3366C103.25 31.4902 103.216 31.678 103.216 31.8828V32.1814H103.873V31.9596C103.873 31.7548 103.933 31.5841 104.052 31.4476C104.172 31.311 104.368 31.1489 104.658 30.9441C104.914 30.7649 105.119 30.5601 105.272 30.3382C105.417 30.1164 105.494 29.8348 105.494 29.4849C105.494 29.1948 105.417 28.9388 105.264 28.7084C105.11 28.4865 104.897 28.3073 104.624 28.1708C104.342 28.0428 104.018 27.9745 103.66 27.9745C103.267 27.9745 102.917 28.0598 102.627 28.2305C102.337 28.4012 102.107 28.6401 101.953 28.9388ZM103.207 33.231C103.113 33.3164 103.071 33.4358 103.071 33.5724C103.071 33.7174 103.113 33.8369 103.207 33.9222C103.293 34.0076 103.412 34.0502 103.557 34.0502C103.694 34.0502 103.813 34.0076 103.907 33.9222C103.992 33.8369 104.044 33.7174 104.044 33.5724C104.044 33.4358 103.992 33.3164 103.907 33.231C103.813 33.1457 103.694 33.0945 103.557 33.0945C103.412 33.0945 103.293 33.1457 103.207 33.231Z" fill="#222223"/>
<path d="M46.4417 14.4123V21.1323H47.8145V16.6299L49.5617 21.1323H50.7329L52.4801 16.6299V21.1323H53.8529V14.4123H52.0001L50.1953 19.3467L48.3329 14.4123H46.4417ZM59.7531 19.9899H59.5995C59.4843 19.9899 59.4075 19.9707 59.3595 19.9227C59.3019 19.8843 59.2827 19.7979 59.2827 19.6731V17.9355C59.2827 17.3595 59.0907 16.9083 58.7067 16.6011C58.3227 16.2939 57.7851 16.1403 57.0939 16.1403C56.4219 16.1403 55.8939 16.2843 55.4907 16.5627C55.0875 16.8411 54.8571 17.2347 54.8187 17.7339H56.1243C56.1531 17.5515 56.2491 17.4075 56.4123 17.2923C56.5659 17.1867 56.7771 17.1291 57.0267 17.1291C57.3051 17.1291 57.5259 17.1963 57.6987 17.3307C57.8619 17.4651 57.9483 17.6379 57.9483 17.8587V18.0987H56.9691C56.2299 18.0987 55.6635 18.2427 55.2795 18.5307C54.8955 18.8187 54.7035 19.2219 54.7035 19.7403C54.7035 20.2011 54.8667 20.5659 55.2027 20.8155C55.5387 21.0651 55.9803 21.1899 56.5371 21.1899C56.9019 21.1899 57.2187 21.1227 57.4875 20.9691C57.7467 20.8251 57.9675 20.6139 58.1499 20.3259C58.1307 20.8635 58.4379 21.1323 59.0619 21.1323H59.7531V19.9899ZM57.9483 19.0011V19.0971C57.9387 19.4427 57.8331 19.7115 57.6315 19.9131C57.4203 20.1147 57.1419 20.2107 56.7963 20.2107C56.5659 20.2107 56.3931 20.1627 56.2587 20.0571C56.1243 19.9611 56.0667 19.8171 56.0667 19.6443C56.0667 19.4427 56.1435 19.2891 56.2971 19.1739C56.4507 19.0587 56.6715 19.0011 56.9595 19.0011H57.9483ZM63.2815 16.1979H63.0511C62.6863 16.1979 62.3887 16.2651 62.1775 16.3899C61.9567 16.5147 61.7743 16.6971 61.6303 16.9371L61.5055 16.1979H60.2767V21.1323H61.6303V18.7131C61.6303 18.3195 61.7167 18.0027 61.8991 17.7723C62.0719 17.5419 62.3599 17.4267 62.7439 17.4267H63.2815V16.1979ZM67.7012 20.6811C68.1236 20.3355 68.3732 19.8651 68.4692 19.2603H67.0772C67.0195 19.5195 66.9043 19.7211 66.7315 19.8651C66.5587 20.0187 66.3379 20.0859 66.0787 20.0859C65.7235 20.0859 65.4451 19.9611 65.2339 19.6923C65.0227 19.4331 64.9171 19.0875 64.9171 18.6651C64.9171 18.2427 65.0227 17.9067 65.2339 17.6379C65.4451 17.3787 65.7235 17.2443 66.0787 17.2443C66.3283 17.2443 66.5491 17.3211 66.722 17.4651C66.8947 17.6091 67.01 17.8011 67.0675 18.0411H68.4692C68.3732 17.4459 68.114 16.9851 67.7012 16.6491C67.2788 16.3131 66.7411 16.1403 66.0883 16.1403C65.5699 16.1403 65.1187 16.2459 64.7347 16.4571C64.3507 16.6683 64.0531 16.9563 63.8419 17.3403C63.6307 17.7243 63.5347 18.1659 63.5347 18.6651C63.5347 19.1643 63.6307 19.6059 63.8419 19.9899C64.0531 20.3739 64.3507 20.6715 64.7347 20.8827C65.1187 21.0939 65.5603 21.1899 66.0787 21.1899C66.7411 21.1899 67.2788 21.0267 67.7012 20.6811Z" fill="#222223"/>
<mask id="mask0_201_4793" style="mask-type:alpha" maskUnits="userSpaceOnUse" x="8" y="8" width="32" height="32">
<circle cx="23.9999" cy="23.9999" r="15.4667" fill="#C4C4C4"/>
</mask>
<g mask="url(#mask0_201_4793)">
<circle cx="23.9999" cy="23.9999" r="15.4667" fill="#F480FF"/>
<path d="M19.66 20.3L19.66 28H21.233L21.233 22.841L23.235 28H24.577L26.579 22.841L26.579 28H28.152V20.3H26.029L23.961 25.954L21.827 20.3H19.66Z" fill="white"/>
</g>
<path d="M153.212 14.5267H152.291V15.1837C152.291 15.3544 152.248 15.4824 152.18 15.5848C152.103 15.6872 151.992 15.7384 151.856 15.7384H150.917V16.5405H151.898C152.06 16.5405 152.188 16.5149 152.274 16.4637V20.5H153.212V14.5267ZM162.647 16.5491C162.34 16.2419 161.956 16.0797 161.478 16.0797C161.119 16.0797 160.821 16.1565 160.573 16.2931C160.317 16.4296 160.121 16.6259 159.967 16.8733C159.839 16.6088 159.66 16.4125 159.43 16.276C159.191 16.148 158.926 16.0797 158.619 16.0797C158.073 16.0883 157.646 16.2931 157.339 16.7027L157.237 16.1309H156.435V20.5H157.356V18.1619C157.356 17.7693 157.442 17.4621 157.629 17.2232C157.817 16.9928 158.065 16.8733 158.38 16.8733C158.679 16.8733 158.909 16.9757 159.063 17.172C159.217 17.3683 159.302 17.6584 159.302 18.0424V20.5H160.232V18.1363C160.232 17.7437 160.317 17.4365 160.505 17.2147C160.693 16.9928 160.94 16.8733 161.265 16.8733C161.563 16.8733 161.794 16.9757 161.947 17.172C162.101 17.3768 162.178 17.6669 162.178 18.0424V20.5H163.099V18.0339C163.099 17.3512 162.946 16.8563 162.647 16.5491ZM164.797 14.5437C164.686 14.4413 164.549 14.3816 164.395 14.3816C164.233 14.3816 164.097 14.4413 163.994 14.5437C163.883 14.6461 163.832 14.7827 163.832 14.9363C163.832 15.0984 163.883 15.2349 163.994 15.3373C164.097 15.4397 164.233 15.4909 164.395 15.4909C164.549 15.4909 164.686 15.4397 164.797 15.3373C164.899 15.2349 164.959 15.0984 164.959 14.9363C164.959 14.7827 164.899 14.6461 164.797 14.5437ZM163.935 16.1309V20.5H164.856V16.1309H163.935ZM169.327 16.5576C169.002 16.2419 168.576 16.0797 168.064 16.0797C167.458 16.0797 166.988 16.2931 166.664 16.7027L166.562 16.1309H165.76V20.5H166.681V18.2984C166.681 17.8547 166.784 17.5133 166.988 17.2573C167.193 17.0013 167.483 16.8733 167.85 16.8733C168.192 16.8733 168.448 16.9843 168.627 17.1976C168.798 17.4195 168.891 17.7352 168.891 18.1448V20.5H169.822V18.0936C169.822 17.3939 169.651 16.8819 169.327 16.5576ZM177.024 19.6979H176.845C176.649 19.6979 176.555 19.5955 176.555 19.3907V17.6669C176.555 17.1549 176.393 16.7624 176.077 16.4893C175.753 16.2163 175.301 16.0797 174.72 16.0797C174.166 16.0797 173.722 16.2077 173.381 16.4467C173.039 16.6856 172.843 17.0269 172.8 17.4621H173.705C173.739 17.2744 173.841 17.1208 174.012 17.0013C174.183 16.8819 174.405 16.8221 174.678 16.8221C174.976 16.8221 175.215 16.8989 175.386 17.0355C175.557 17.172 175.642 17.3683 175.642 17.6072V17.8717H174.541C173.927 17.8717 173.466 17.9997 173.15 18.2387C172.826 18.4776 172.672 18.8275 172.672 19.2712C172.672 19.6723 172.817 19.988 173.116 20.2099C173.406 20.4403 173.799 20.5512 174.294 20.5512C174.925 20.5512 175.403 20.3037 175.736 19.8003C175.736 20.0307 175.796 20.2013 175.924 20.3208C176.043 20.4403 176.248 20.5 176.538 20.5H177.024V19.6979ZM175.642 18.5544V18.708C175.633 19.0493 175.522 19.3224 175.309 19.5272C175.096 19.732 174.797 19.8344 174.422 19.8344C174.166 19.8344 173.969 19.7832 173.824 19.6637C173.679 19.5528 173.611 19.3992 173.611 19.2115C173.611 18.9981 173.688 18.836 173.841 18.7251C173.995 18.6141 174.208 18.5544 174.498 18.5544H175.642ZM181.767 16.1309H180.965L180.863 16.8136C180.709 16.5917 180.522 16.4125 180.283 16.276C180.044 16.148 179.754 16.0797 179.429 16.0797C179.037 16.0797 178.678 16.1736 178.371 16.3613C178.055 16.5491 177.808 16.8051 177.629 17.1379C177.45 17.4792 177.364 17.8632 177.364 18.2984C177.364 18.7592 177.45 19.1517 177.629 19.4845C177.799 19.8173 178.047 20.0733 178.363 20.2525C178.67 20.4317 179.028 20.5171 179.429 20.5171C180.061 20.5171 180.53 20.2781 180.854 19.8003V20.2867C180.854 21.1059 180.436 21.5069 179.6 21.5069C179.276 21.5069 179.011 21.4472 178.806 21.3107C178.602 21.1741 178.465 20.9864 178.414 20.7389H177.475C177.509 21.2253 177.714 21.6008 178.09 21.8653C178.456 22.1299 178.934 22.2579 179.532 22.2579C180.291 22.2579 180.854 22.0957 181.221 21.7544C181.58 21.4131 181.767 20.9352 181.767 20.3208V16.1309ZM180.504 19.348C180.266 19.6125 179.958 19.7405 179.583 19.7405C179.199 19.7405 178.892 19.6125 178.661 19.3395C178.422 19.0749 178.311 18.7251 178.311 18.2984C178.311 17.8717 178.422 17.5304 178.661 17.2573C178.892 16.9928 179.199 16.8563 179.583 16.8563C179.958 16.8563 180.266 16.9928 180.504 17.2659C180.735 17.5389 180.854 17.8888 180.854 18.3155C180.854 18.7421 180.735 19.0835 180.504 19.348ZM183.564 20.2781C183.905 20.4659 184.289 20.5512 184.733 20.5512C185.168 20.5512 185.552 20.4659 185.894 20.2781C186.235 20.0904 186.491 19.8344 186.679 19.4931C186.866 19.1517 186.96 18.7592 186.96 18.3155C186.96 17.8803 186.866 17.4963 186.679 17.1549C186.491 16.8136 186.235 16.5491 185.894 16.3613C185.552 16.1736 185.168 16.0797 184.733 16.0797C184.289 16.0797 183.905 16.1736 183.564 16.3613C183.223 16.5491 182.967 16.8136 182.779 17.1549C182.591 17.4963 182.506 17.8803 182.506 18.3155C182.506 18.7592 182.591 19.1517 182.779 19.4931C182.967 19.8344 183.223 20.0904 183.564 20.2781ZM185.663 19.3651C185.424 19.6381 185.117 19.7661 184.733 19.7661C184.341 19.7661 184.033 19.6381 183.803 19.3651C183.564 19.092 183.453 18.7421 183.453 18.3155C183.453 17.8888 183.564 17.5475 183.803 17.2744C184.033 17.0013 184.341 16.8648 184.733 16.8648C185.117 16.8648 185.424 17.0013 185.663 17.2744C185.902 17.5475 186.022 17.8888 186.022 18.3155C186.022 18.7421 185.902 19.092 185.663 19.3651Z" fill="#B1B1B3"/>
<rect x="174.333" y="25.4331" width="13.5333" height="12.0667" rx="4.26667" fill="#316AFF"/>
<path d="M180.81 31.4948L178.831 33.1375V33.9663H182.661V33.0628H180.384L181.556 32.1071C181.922 31.8084 182.191 31.5322 182.37 31.2708C182.549 31.0095 182.639 30.6959 182.639 30.3375C182.639 29.8372 182.467 29.434 182.131 29.1354C181.795 28.8367 181.325 28.6874 180.713 28.6874C180.332 28.6874 179.996 28.7695 179.712 28.9188C179.421 29.0682 179.197 29.2772 179.04 29.546C178.883 29.8148 178.809 30.1135 178.809 30.442V30.5839H179.891V30.5018C179.891 30.2255 179.966 30.0015 180.115 29.8372C180.265 29.673 180.466 29.5908 180.713 29.5908C180.967 29.5908 181.168 29.6655 181.317 29.7999C181.467 29.9343 181.549 30.1284 181.549 30.3823C181.549 30.5839 181.489 30.7706 181.37 30.9348C181.25 31.1066 181.064 31.2932 180.81 31.4948Z" fill="white"/>
</svg>
